<svg xmlns="http://www.w3.org/2000/svg" viewBox="0 0 24 24" fill="none" role="img" aria-label="ClaimX icon">
  <defs>
    <linearGradient id="iconGrad" x1="2" y1="2" x2="22" y2="22" gradientUnits="userSpaceOnUse">
      <stop stop-color="#00D4FF"/>
      <stop offset="1" stop-color="#00FFE7"/>
    </linearGradient>
  </defs>
  <path stroke="url(#iconGrad)" stroke-linecap="round" stroke-linejoin="round" stroke-width="1.5"
    d="M15.24 10.233A4.619 4.619 0 0 0 12 8.89c-1.204 0-2.39.492-3.24 1.344l-6.244 6.243c-1.32 1.38-1.296 3.63.054 4.981 1.351 1.35 3.602 1.375 4.981.054l4.45-4.449 4.448 4.45c1.38 1.32 3.63 1.296 4.98-.055 1.351-1.35 1.376-3.6.055-4.98l-6.243-6.244Z"/>
  <path stroke="url(#iconGrad)" stroke-linecap="round" stroke-linejoin="round" stroke-width="1.5"
    d="M6.993 12 2.516 7.524c-1.32-1.38-1.296-3.63.054-4.981 1.351-1.35 3.602-1.375 4.981-.054l4.45 4.449 4.448-4.45c1.38-1.32 3.63-1.296 4.98.055 1.351 1.35 1.376 3.6.055 4.98L17.007 12"/>
  <path stroke="url(#iconGrad)" stroke-linecap="round" stroke-linejoin="round" stroke-width="1.5"
    d="M17.007 12 12 17.064 6.993 12"/>
</svg>
